<?xml version="1.0" standalone="no"?>
<!DOCTYPE svg PUBLIC "-//W3C//DTD SVG 20010904//EN"
 "http://www.w3.org/TR/2001/REC-SVG-20010904/DTD/svg10.dtd">
<svg version="1.0" xmlns="http://www.w3.org/2000/svg"
 width="5906.000000pt" height="2953.000000pt" viewBox="0 0 5906.000000 2953.000000"
 preserveAspectRatio="xMidYMid meet">

<g transform="translate(0.000000,2953.000000) scale(0.100000,-0.100000)"
fill="#000000" stroke="none">
<path d="M20660 22329 c-1184 -43 -2336 -500 -3233 -1282 l-87 -75 512 -522
c281 -286 515 -519 519 -518 4 2 48 36 98 77 491 404 1085 681 1704 796 266
48 391 59 697 59 304 0 432 -11 692 -59 608 -112 1203 -386 1677 -772 45 -38
94 -77 108 -88 l25 -20 514 520 514 520 -53 48 c-203 188 -521 419 -822 599
-714 425 -1594 686 -2400 713 -82 3 -177 7 -210 8 -33 2 -148 0 -255 -4z"/>
<path d="M6510 17085 l0 -5205 740 0 740 0 0 2230 0 2230 2310 0 2310 0 0
-2230 0 -2230 745 0 745 0 -2 4893 -3 4892 -22 78 c-63 219 -190 374 -388 473
-143 71 -169 74 -652 74 l-423 0 0 -2230 0 -2230 -2310 0 -2310 0 -2 1938 -3
1937 -26 77 c-43 124 -93 204 -188 298 -99 98 -202 157 -335 190 -73 18 -113
20 -503 20 l-423 0 0 -5205z"/>
<path d="M27520 18988 c0 -3302 3 -3613 36 -3863 130 -1002 655 -1900 1465
-2507 865 -648 1983 -886 3044 -646 434 97 874 286 1239 531 441 296 813 677
1088 1117 323 518 510 1081 558 1690 8 94 10 1095 8 3265 l-3 3130 -26 77
c-41 120 -94 204 -183 294 -90 90 -174 142 -294 183 l-77 26 -447 3 -448 3 -3
-3453 c-3 -3782 2 -3474 -58 -3741 -100 -450 -373 -900 -729 -1200 -414 -348
-907 -528 -1445 -528 -616 0 -1190 243 -1610 682 -317 332 -511 718 -598 1194
l-22 120 -5 3165 c-5 2956 -7 3169 -23 3221 -76 248 -246 427 -482 507 l-80
27 -452 3 -453 3 0 -3303z"/>
<path d="M36460 17085 l0 -5205 2975 0 2975 0 0 740 0 740 -2230 0 -2230 0 0
1490 0 1490 2230 0 2230 0 0 745 0 745 -2230 0 -2230 0 0 1490 0 1490 2231 0
2230 0 -3 443 -3 442 -31 88 c-18 48 -47 112 -65 143 -76 127 -224 255 -356
309 -145 58 31 55 -2853 55 l-2640 0 0 -5205z"/>
<path d="M43910 21541 l0 -740 1963 -4 c1821 -3 1970 -4 2067 -20 513 -87 914
-289 1261 -636 358 -359 569 -790 640 -1311 15 -113 15 -411 0 -530 -74 -564
-352 -1082 -771 -1432 -258 -216 -570 -380 -872 -457 -272 -70 -171 -65 -1555
-69 l-1253 -3 0 1173 c0 1319 4 1232 -77 1398 -39 78 -62 110 -133 181 -71 71
-101 93 -180 132 -165 81 -158 80 -652 85 l-438 3 0 -3715 0 -3716 740 0 740
0 0 1485 0 1485 968 0 967 0 1485 -1485 1485 -1485 1050 0 1050 0 -1640 1640
c-901 901 -1637 1642 -1634 1644 3 3 58 31 123 62 1078 512 1867 1575 2050
2764 131 850 -32 1715 -461 2449 -546 935 -1482 1590 -2542 1781 -313 57 -187
54 -2368 57 l-2013 4 0 -740z"/>
<path d="M16750 20338 c-129 -164 -256 -345 -356 -509 -665 -1094 -908 -2355
-698 -3619 100 -603 311 -1191 617 -1725 724 -1262 1939 -2171 3347 -2504
1406 -332 2885 -70 4090 724 1132 747 1931 1895 2233 3210 49 213 80 409 112
707 3 31 10 149 14 263 50 1259 -344 2464 -1130 3462 l-57 73 -517 -525 c-347
-353 -514 -529 -509 -537 4 -7 38 -56 75 -108 347 -490 580 -1103 656 -1730
22 -180 25 -660 5 -820 -44 -361 -115 -656 -233 -967 -374 -989 -1199 -1811
-2189 -2181 -496 -186 -967 -261 -1507 -241 -992 38 -1948 484 -2624 1226
-369 405 -629 848 -799 1363 -84 254 -131 459 -172 760 -21 153 -18 721 5 890
48 351 135 681 262 990 91 221 250 509 398 718 l80 114 -224 226 c-123 125
-356 361 -518 525 -161 163 -294 297 -295 297 0 0 -30 -37 -66 -82z"/>
<path d="M19357 18562 l-1509 -1509 7 -109 c10 -176 25 -310 51 -449 24 -122
80 -344 90 -354 3 -3 650 640 1439 1429 l1435 1435 1435 -1435 c789 -789 1436
-1432 1438 -1430 8 12 67 245 86 340 28 147 50 346 52 474 l1 109 -1503 1503
c-827 827 -1506 1504 -1509 1504 -3 0 -684 -679 -1513 -1508z"/>
<path d="M19602 16667 l-1262 -1262 52 -75 c85 -122 198 -257 319 -383 l114
-118 1020 1020 1020 1021 1021 -1021 1020 -1020 106 106 c106 104 252 279 340
406 l47 66 -1262 1261 c-694 694 -1264 1262 -1267 1262 -3 0 -573 -568 -1268
-1263z"/>
<path d="M20162 15087 l-703 -703 108 -51 c182 -86 365 -152 563 -203 l105
-28 318 317 317 316 318 -316 317 -317 105 28 c193 49 376 116 567 207 l103
49 -703 702 c-386 386 -704 702 -707 702 -3 0 -321 -316 -708 -703z"/>
<path d="M33505 9236 c-316 -61 -556 -259 -647 -531 -20 -60 -23 -90 -23 -210
0 -167 18 -233 96 -350 135 -202 335 -305 794 -411 195 -45 270 -73 331 -127
62 -55 84 -104 84 -192 0 -87 -22 -137 -85 -200 -126 -126 -374 -169 -579
-101 -100 34 -167 78 -240 157 -127 139 -148 159 -179 176 -77 40 -195 5 -251
-75 -23 -32 -31 -56 -34 -103 -4 -56 -1 -68 38 -144 48 -96 161 -224 249 -284
138 -94 311 -161 467 -182 107 -14 303 -6 392 15 237 59 430 192 546 379 131
210 149 474 46 678 -113 224 -333 346 -842 467 -303 72 -409 152 -408 307 1
58 29 128 73 180 91 108 310 161 500 120 91 -19 157 -51 240 -114 96 -72 137
-91 198 -91 113 0 190 72 197 184 4 58 2 64 -38 123 -101 152 -289 269 -510
318 -101 22 -325 28 -415 11z"/>
<path d="M48807 9234 c-110 -17 -269 -70 -383 -127 -366 -185 -627 -549 -690
-959 -19 -125 -14 -354 11 -468 91 -414 375 -762 755 -925 382 -163 836 -133
1185 79 313 189 541 516 611 873 25 123 25 369 1 483 -38 181 -109 349 -210
500 -64 96 -230 261 -329 328 -283 191 -621 268 -951 216z m356 -429 c353 -61
617 -313 703 -670 25 -102 22 -295 -5 -400 -83 -315 -322 -550 -641 -631 -57
-15 -108 -19 -215 -18 -121 1 -152 5 -228 28 -364 110 -604 412 -624 786 -29
560 462 1001 1010 905z"/>
<path d="M51288 9239 c-31 -4 -100 -22 -152 -40 -277 -92 -477 -303 -530 -562
-66 -317 84 -599 399 -751 116 -56 207 -85 442 -141 268 -64 323 -85 388 -152
49 -50 63 -80 71 -146 10 -87 -15 -155 -84 -225 -100 -102 -238 -149 -412
-138 -200 11 -322 75 -460 241 -84 100 -142 139 -209 139 -119 -1 -223 -116
-207 -230 12 -90 111 -243 214 -332 109 -93 200 -145 337 -192 133 -46 189
-55 360 -55 135 0 174 4 250 24 260 67 461 221 569 437 47 94 66 171 72 289
11 182 -41 332 -156 458 -127 138 -318 231 -621 302 -308 73 -382 100 -457
169 -70 65 -90 123 -72 216 28 150 176 252 385 267 164 11 295 -29 431 -132
39 -30 87 -62 107 -70 81 -34 191 -8 240 56 33 45 51 108 43 152 -9 46 -76
138 -153 207 -184 166 -507 251 -795 209z"/>
<path d="M24980 9215 c-19 -9 -50 -30 -67 -47 -66 -64 -64 -7 -61 -1234 l3
-1109 28 -47 c87 -149 315 -134 382 24 13 33 15 169 15 1155 0 1114 0 1117
-21 1160 -32 66 -95 105 -178 110 -46 2 -77 -1 -101 -12z"/>
<path d="M25895 9214 c-44 -23 -82 -62 -105 -109 -20 -41 -20 -58 -18 -1168
l3 -1125 30 -44 c89 -126 278 -124 363 4 l27 42 5 809 5 810 700 -839 c385
-461 715 -853 734 -871 45 -43 123 -61 182 -44 52 16 124 82 141 129 10 30 13
262 13 1152 l0 1115 -22 41 c-43 81 -115 120 -209 112 -75 -6 -140 -49 -173
-113 l-26 -49 -5 -785 -5 -785 -691 829 c-381 457 -703 840 -716 852 -55 51
-171 70 -233 37z"/>
<path d="M28349 9203 c-71 -37 -111 -93 -117 -167 -4 -54 4 -74 453 -1123 252
-587 468 -1088 480 -1113 28 -56 57 -83 115 -109 80 -36 159 -21 225 44 38 37
81 132 509 1131 257 600 469 1108 473 1128 14 91 -58 202 -147 226 -89 24
-193 -10 -237 -77 -10 -15 -180 -407 -379 -871 -199 -465 -364 -841 -366 -836
-3 5 -166 385 -363 844 -196 459 -369 851 -384 870 -64 81 -166 101 -262 53z"/>
<path d="M30849 9207 c-24 -13 -57 -43 -74 -66 l-30 -43 -3 -1121 c-1 -617 0
-1137 3 -1155 4 -20 23 -52 47 -78 70 -76 43 -74 872 -74 l731 0 52 25 c93 43
139 148 109 248 -19 64 -60 115 -110 138 -39 17 -77 19 -658 19 l-618 0 0 335
0 334 493 3 c482 3 493 3 532 25 96 51 135 146 105 253 -13 49 -66 109 -114
131 -38 17 -76 19 -528 19 l-488 0 0 300 0 299 623 3 624 3 48 30 c145 89 128
314 -27 380 -33 13 -133 15 -791 15 l-754 0 -44 -23z"/>
<path d="M34852 9209 c-104 -52 -145 -188 -89 -295 23 -44 80 -91 124 -103 23
-7 163 -11 350 -11 l313 0 2 -994 3 -994 30 -44 c89 -126 278 -124 363 4 l27
42 3 993 2 993 313 0 c197 0 327 4 352 11 62 17 130 91 143 156 21 98 -26 201
-111 242 -43 21 -50 21 -913 21 -866 0 -869 0 -912 -21z"/>
<path d="M37220 9215 c-46 -21 -77 -51 -103 -100 l-22 -40 -3 -1090 c-2 -777
1 -1105 9 -1143 8 -41 21 -66 51 -98 118 -128 333 -70 367 98 8 38 11 374 9
1143 l-3 1090 -25 45 c-14 24 -44 58 -68 74 -36 25 -54 31 -110 33 -45 2 -79
-2 -102 -12z"/>
<path d="M38135 9211 c-51 -23 -101 -80 -115 -130 -7 -27 -9 -391 -8 -1148 l3
-1108 28 -47 c83 -141 296 -137 375 7 15 27 17 111 22 844 l5 814 328 -389
c181 -214 346 -402 366 -417 21 -16 54 -32 75 -37 48 -11 101 2 147 37 20 15
183 201 361 413 l323 385 5 -800 c4 -572 8 -807 17 -826 63 -140 233 -178 348
-77 80 71 76 -2 73 1244 l-3 1099 -27 46 c-15 25 -46 59 -70 75 -37 25 -52 29
-113 29 -50 0 -81 -6 -110 -20 -31 -15 -138 -137 -471 -535 -237 -283 -436
-516 -441 -517 -6 -2 -198 220 -429 494 -230 274 -432 511 -448 526 -61 58
-162 74 -241 38z"/>
<path d="M41089 9207 c-57 -30 -96 -87 -109 -158 -7 -37 -10 -428 -8 -1135 3
-1194 -1 -1114 68 -1181 67 -65 47 -64 871 -61 l746 3 48 30 c128 79 131 272
6 360 l-43 30 -629 3 -629 2 0 335 0 334 493 3 492 3 45 25 c60 34 101 95 108
159 8 92 -44 186 -123 222 -37 17 -76 19 -527 19 l-488 0 0 300 0 299 623 3
c683 3 646 0 711 65 81 80 79 231 -6 310 -58 54 -36 53 -851 53 l-754 0 -44
-23z"/>
<path d="M43293 9211 c-48 -22 -98 -85 -113 -142 -7 -24 -9 -418 -8 -1141 l3
-1103 28 -47 c86 -147 302 -136 381 19 14 29 16 115 16 833 0 440 3 800 8 799
4 0 320 -376 702 -835 382 -460 712 -851 732 -869 96 -88 248 -59 311 59 l22
41 3 1108 c1 757 -1 1121 -8 1148 -40 146 -241 198 -353 91 -66 -62 -62 -7
-67 -886 l-5 -798 -690 828 c-379 456 -701 840 -715 853 -63 60 -168 77 -247
42z"/>
<path d="M45792 9209 c-104 -52 -145 -188 -89 -295 23 -44 80 -91 124 -103 23
-7 163 -11 350 -11 l313 0 2 -994 3 -994 30 -44 c53 -75 148 -111 232 -89 59
16 122 66 144 114 18 40 19 81 19 1024 l0 982 333 3 c362 3 359 3 421 65 91
90 75 252 -33 328 l-43 30 -881 3 -882 2 -43 -21z"/>
</g>
</svg>
